<svg xmlns="http://www.w3.org/2000/svg" xmlns:xlink="http://www.w3.org/1999/xlink" width="26" height="26" viewBox="0 0 26 26">
  <defs>
    <clipPath id="clip-path-18+">
      <rect width="26" height="26" fill="none"/>
    </clipPath>
  </defs>
  <g id="Повторяющаяся_сетка_1" data-name="Повторяющаяся сетка 1" clip-path="url(#clip-path-18+)">
    <g transform="translate(-948 -165)">
      <g id="Сгруппировать_48" data-name="Сгруппировать 48" transform="translate(327.533 -555.068)" opacity="0.5">
        <path id="Контур_33" data-name="Контур 33" d="M643.227,747.283h-1.79c-.688,0-1.042.118-1.042.689v.65c0,.571.354.689,1.042.689h.413c.256,0,.373.138.373.532v8.509c0,.69.118,1.044.689,1.044h.668c.571,0,.689-.354.689-1.044v-10.38C644.27,747.4,643.915,747.283,643.227,747.283Z" transform="translate(-14.772 -20.163)" fill="#fff"/>
        <path id="Контур_34" data-name="Контур 34" d="M640.724,721.211a3.987,3.987,0,0,0-2.891-1.143H629.1a3.954,3.954,0,0,0-2.891,1.143l-4.622,4.609a3.841,3.841,0,0,0-1.121,2.757v8.883a3.927,3.927,0,0,0,1.239,2.974l4.386,4.392a3.976,3.976,0,0,0,3.068,1.241h8.614a4.063,4.063,0,0,0,3.068-1.241l4.386-4.392a4.031,4.031,0,0,0,1.239-2.974v-8.883a3.841,3.841,0,0,0-1.121-2.757Zm4.032,10.4c0,.3-.138.453-.413.453h-1.318v-.926c0-.689-.1-1.044-.688-1.044h-.59c-.59,0-.688.354-.688,1.044v.926h-.924c-.688,0-1.042.1-1.042.689v.63c0,.591.354.69,1.042.69h.924V735c0,.689.1,1.044.688,1.044h.59c.59,0,.688-.354.688-1.044v-.926h1.318a.377.377,0,0,1,.413.394v2.994a2.28,2.28,0,0,1-.728,1.773l-4.386,4.392a2.391,2.391,0,0,1-1.789.749h-8.772a2.39,2.39,0,0,1-1.789-.749l-4.386-4.392a2.241,2.241,0,0,1-.728-1.773v-8.686a2.557,2.557,0,0,1,.767-1.891l4.464-4.53a2.22,2.22,0,0,1,1.672-.591h8.772a2.221,2.221,0,0,1,1.672.591l4.464,4.53a2.637,2.637,0,0,1,.767,1.891Z" fill="#fff"/>
        <path id="Контур_35" data-name="Контур 35" d="M667.041,752.493a2.464,2.464,0,0,0,1.121-2.3v-.669c-.118-2.226-.865-3.073-3.441-3.073s-3.323.847-3.442,3.073v.669a2.464,2.464,0,0,0,1.121,2.3c-1.318.512-1.416,1.635-1.416,3.112,0,2.186.767,3.27,3.737,3.329,2.97-.059,3.737-1.143,3.737-3.329C668.458,754.128,668.359,753,667.041,752.493Zm-2.32-4.235c1.082,0,1.515.394,1.515,1.714,0,1.28-.433,1.714-1.515,1.714s-1.514-.434-1.514-1.714C663.206,748.652,663.639,748.258,664.721,748.258Zm0,8.8c-1.259,0-1.711-.492-1.711-1.733s.453-1.812,1.711-1.812,1.711.571,1.711,1.812S665.979,757.062,664.721,757.062Z" transform="translate(-30.034 -19.543)" fill="#fff"/>
      </g>
    </g>
  </g>
</svg>
