<svg xmlns="http://www.w3.org/2000/svg" xmlns:xlink="http://www.w3.org/1999/xlink" width="20" height="20" viewBox="0 0 20 20">
  <defs>
    <clipPath id="clip-path-rest">
      <rect id="Прямоугольник_13" data-name="Прямоугольник 13" width="20" height="20" transform="translate(1184 234)" fill="#fff"/>
    </clipPath>
  </defs>
  <g id="Группа_масок_8" data-name="Группа масок 8" transform="translate(-1184 -234)" opacity="0.5" clip-path="url(#clip-path-rest)">
    <path id="icons8-view_more" d="M12,2A10,10,0,1,0,22,12,10.011,10.011,0,0,0,12,2Zm0,1.5A8.5,8.5,0,1,1,3.5,12,8.489,8.489,0,0,1,12,3.5Zm-4.5,7A1.5,1.5,0,1,0,9,12,1.5,1.5,0,0,0,7.5,10.5Zm4.5,0A1.5,1.5,0,1,0,13.5,12,1.5,1.5,0,0,0,12,10.5Zm4.5,0A1.5,1.5,0,1,0,18,12,1.5,1.5,0,0,0,16.5,10.5Z" transform="translate(1182 232)" fill="#fff"/>
  </g>
</svg>
