<svg xmlns="http://www.w3.org/2000/svg" xmlns:xlink="http://www.w3.org/1999/xlink" width="24" height="24" viewBox="0 0 24 24">
  <defs>
    <clipPath id="clip-path-burger">
      <rect id="Прямоугольник_82" data-name="Прямоугольник 82" width="24" height="24" transform="translate(318 222)" fill="#fff"/>
    </clipPath>
  </defs>
  <g id="Группа_масок_26" data-name="Группа масок 26" transform="translate(-318 -222)" clip-path="url(#clip-path-burger)">
    <path id="icons8-xbox_menu" d="M14.4,2.4a12,12,0,1,0,12,12A12,12,0,0,0,14.4,2.4Zm0,1.8A10.2,10.2,0,1,1,4.2,14.4,10.211,10.211,0,0,1,14.4,4.2Zm-5.1,6a.9.9,0,1,0,0,1.8H19.5a.9.9,0,1,0,0-1.8Zm.014,3.6a.9.9,0,1,0,0,1.8H19.5a.9.9,0,1,0,0-1.8ZM9.3,17.4a.9.9,0,1,0,0,1.8H19.486a.9.9,0,1,0,0-1.8Z" transform="translate(315.6 219.6)" fill="#fff"/>
  </g>
</svg>
