<svg xmlns="http://www.w3.org/2000/svg" xmlns:xlink="http://www.w3.org/1999/xlink" width="20" height="20" viewBox="0 0 20 20">
  <defs>
    <clipPath id="clip-path">
      <rect id="Прямоугольник_52" data-name="Прямоугольник 52" width="20" height="20" transform="translate(1088 327)" fill="#fff"/>
    </clipPath>
  </defs>
  <g id="Группа_масок_20" data-name="Группа масок 20" transform="translate(-1088 -327)" clip-path="url(#clip-path)">
    <g id="cloudy" transform="translate(1087.982 327)">
      <path id="Контур_59" data-name="Контур 59" d="M16.963,8.136a5.085,5.085,0,1,1-5.085-5.085A5.085,5.085,0,0,1,16.963,8.136Zm0,0" fill="#fdd020"/>
      <path id="Контур_60" data-name="Контур 60" d="M11.879,2.034a.339.339,0,0,1-.339-.339V.339a.339.339,0,1,1,.678,0V1.695A.339.339,0,0,1,11.879,2.034Zm0,0" fill="#fdd020"/>
      <path id="Контур_61" data-name="Контур 61" d="M19.675,8.475H18.319a.339.339,0,1,1,0-.678h1.356a.339.339,0,0,1,0,.678Zm0,0" fill="#fdd020"/>
      <path id="Контур_62" data-name="Контур 62" d="M15.946,12.542a3.737,3.737,0,0,0-.738.074,3.045,3.045,0,0,0-4.265-2.165A4.065,4.065,0,1,0,3.3,13.225,3.388,3.388,0,0,0,3.4,20H15.946a3.729,3.729,0,1,0,0-7.458Zm0,0" fill="#a3d4f7"/>
      <g id="Сгруппировать_52" data-name="Сгруппировать 52">
        <path id="Контур_63" data-name="Контур 63" d="M7.133,3.39,5.777,2.034" fill="#fdd020"/>
        <path id="Контур_64" data-name="Контур 64" d="M7.133,3.729a.339.339,0,0,1-.24-.1L5.537,2.274a.339.339,0,1,1,.479-.479L7.373,3.15a.339.339,0,0,1-.24.579Zm0,0" fill="#fdd020"/>
        <path id="Контур_65" data-name="Контур 65" d="M16.624,3.39,17.98,2.034" fill="#fdd020"/>
        <path id="Контур_66" data-name="Контур 66" d="M16.624,3.729a.339.339,0,0,1-.24-.579l1.356-1.356a.339.339,0,1,1,.479.479L16.864,3.63A.339.339,0,0,1,16.624,3.729Zm0,0" fill="#fdd020"/>
      </g>
    </g>
  </g>
</svg>
