<svg xmlns="http://www.w3.org/2000/svg" xmlns:xlink="http://www.w3.org/1999/xlink" width="15" height="15" viewBox="0 0 15 15">
  <defs>
    <clipPath id="clip-path-comments">
      <rect id="Прямоугольник_57" data-name="Прямоугольник 57" width="15" height="15" transform="translate(216 349)" fill="#fff"/>
    </clipPath>
  </defs>
  <g id="Группа_масок_25" data-name="Группа масок 25" transform="translate(-216 -349)" opacity="0.5" clip-path="url(#clip-path-comments)">
    <g id="_049-chat" data-name="049-chat" transform="translate(216 349)">
      <g id="Сгруппировать_116" data-name="Сгруппировать 116">
        <g id="Сгруппировать_115" data-name="Сгруппировать 115">
          <path id="Контур_72" data-name="Контур 72" d="M14.85,6.02A7.5,7.5,0,0,0,6.254.1L6.217.11A7.5,7.5,0,0,0,.346,9.746,5.612,5.612,0,0,1,.06,13.795a.625.625,0,0,0,.73.869l2.8-.765A7.432,7.432,0,0,0,7.483,15a7.559,7.559,0,0,0,1.5-.15A7.5,7.5,0,0,0,14.85,6.02ZM12.7,10.958A6.247,6.247,0,0,1,4.039,12.7a.627.627,0,0,0-.346-.1.638.638,0,0,0-.164.022l-1.908.521A6.873,6.873,0,0,0,1.54,9.373a6.172,6.172,0,0,1-.2-.805A6.255,6.255,0,0,1,6.4,1.347l.034-.005A6.248,6.248,0,0,1,12.7,10.958Z" fill="#fff"/>
        </g>
      </g>
      <g id="Сгруппировать_118" data-name="Сгруппировать 118">
        <g id="Сгруппировать_117" data-name="Сгруппировать 117">
          <path id="Контур_73" data-name="Контур 73" d="M10,5.625H5a.625.625,0,1,0,0,1.25h5a.625.625,0,1,0,0-1.25Z" fill="#fff"/>
        </g>
      </g>
      <g id="Сгруппировать_120" data-name="Сгруппировать 120">
        <g id="Сгруппировать_119" data-name="Сгруппировать 119">
          <path id="Контур_74" data-name="Контур 74" d="M10,8.124H5a.625.625,0,0,0,0,1.25h5a.625.625,0,0,0,0-1.25Z" fill="#fff"/>
        </g>
      </g>
    </g>
  </g>
</svg>
