<svg xmlns="http://www.w3.org/2000/svg" xmlns:xlink="http://www.w3.org/1999/xlink" width="20" height="20" viewBox="0 0 20 20">
  <defs>
    <clipPath id="clip-path-copyLink">
      <rect id="Прямоугольник_18" data-name="Прямоугольник 18" width="20" height="20" transform="translate(26 12)" fill="#fff"/>
    </clipPath>
  </defs>
  <g id="Группа_масок_29" data-name="Группа масок 29" transform="translate(-26 -12)" clip-path="url(#clip-path-copyLink)">
    <path id="icons8-link" d="M18.125,3.333a5.2,5.2,0,0,0-3.7,1.536L13.2,6.094a5.21,5.21,0,0,0-1.536,3.7,5.13,5.13,0,0,0,.365,1.9l1.354-1.354a3.571,3.571,0,0,1,.99-3.073L15.6,6.042A3.567,3.567,0,0,1,18.125,5a3.507,3.507,0,0,1,2.5,1.042,3.562,3.562,0,0,1,0,5.026L19.4,12.292a3.567,3.567,0,0,1-2.526,1.042,3.052,3.052,0,0,1-.547-.052l-1.354,1.354a5.13,5.13,0,0,0,1.9.365,5.2,5.2,0,0,0,3.7-1.536L21.8,12.24a5.21,5.21,0,0,0,1.536-3.7,5.246,5.246,0,0,0-5.208-5.208ZM16.068,9.4,9.4,16.068l1.2,1.2L17.266,10.6ZM9.792,11.667a5.2,5.2,0,0,0-3.7,1.536L4.87,14.427a5.21,5.21,0,0,0-1.536,3.7,5.246,5.246,0,0,0,5.208,5.208,5.2,5.2,0,0,0,3.7-1.536l1.224-1.224A5.21,5.21,0,0,0,15,16.875a5.13,5.13,0,0,0-.365-1.9l-1.354,1.354a3.571,3.571,0,0,1-.99,3.073l-1.224,1.224a3.567,3.567,0,0,1-2.526,1.042,3.507,3.507,0,0,1-2.5-1.042,3.562,3.562,0,0,1,0-5.026l1.224-1.224a3.567,3.567,0,0,1,2.526-1.042,3.052,3.052,0,0,1,.547.052l1.354-1.354A5.13,5.13,0,0,0,9.792,11.667Z" transform="translate(22.667 8.667)" fill="#fff"/>
  </g>
</svg>
