<svg id="написать_в_редакцию" data-name="написать в редакцию" xmlns="http://www.w3.org/2000/svg" xmlns:xlink="http://www.w3.org/1999/xlink" width="24" height="24" viewBox="0 0 24 24">
  <defs>
    <clipPath id="clip-path-edition">
      <rect id="Прямоугольник_9" data-name="Прямоугольник 9" width="24" height="24" transform="translate(1196 230)" fill="#fff"/>
    </clipPath>
  </defs>
  <g id="Группа_масок_2" data-name="Группа масок 2" transform="translate(-1196 -230)" clip-path="url(#clip-path-edition)">
    <path id="icons8-email_open" d="M9.1,5.6A2.114,2.114,0,0,0,7,7.7V8.889L4.121,10.6A2.7,2.7,0,0,0,2.8,12.923V22.1A3.914,3.914,0,0,0,6.7,26H22.9a3.914,3.914,0,0,0,3.9-3.9V12.924a2.7,2.7,0,0,0-1.32-2.32h0L22.6,8.891V7.7a2.114,2.114,0,0,0-2.1-2.1Zm0,1.8H20.5a.287.287,0,0,1,.3.3v6.88l-6,2.919-6-2.919V9.541a.9.9,0,0,0,0-.292V7.7A.287.287,0,0,1,9.1,7.4ZM7,10.985V13.7l-2.323-1.13a.892.892,0,0,1,.363-.425Zm15.6,0,1.959,1.165a.9.9,0,0,1,.362.424L22.6,13.7Zm-18,3.553,9.806,4.771a.9.9,0,0,0,.788,0L25,14.539V22.1a2.087,2.087,0,0,1-2.1,2.1H6.7a2.087,2.087,0,0,1-2.1-2.1Z" transform="translate(1193.2 226.2)" fill="#fff"/>
  </g>
</svg>
