<svg xmlns="http://www.w3.org/2000/svg" xmlns:xlink="http://www.w3.org/1999/xlink" width="20" height="20" viewBox="0 0 20 20">
  <defs>
    <clipPath id="clip-path-inst">
      <rect id="Прямоугольник_12" data-name="Прямоугольник 12" width="20" height="20" transform="translate(1056 230)" fill="#fff"/>
    </clipPath>
  </defs>
  <g id="Группа_масок_4" data-name="Группа масок 4" transform="translate(-1056 -230)" clip-path="url(#clip-path-inst)">
    <path id="icons8-instagram" d="M9.737,3.684A6.065,6.065,0,0,0,3.684,9.737v7.895a6.065,6.065,0,0,0,6.053,6.053h7.895a6.065,6.065,0,0,0,6.053-6.053V9.737a6.065,6.065,0,0,0-6.053-6.053Zm0,1.579h7.895a4.462,4.462,0,0,1,4.474,4.474v7.895a4.463,4.463,0,0,1-4.474,4.474H9.737a4.462,4.462,0,0,1-4.474-4.474V9.737A4.462,4.462,0,0,1,9.737,5.263Zm9.211,2.105A1.053,1.053,0,1,0,20,8.421,1.052,1.052,0,0,0,18.947,7.368ZM13.684,8.421a5.263,5.263,0,1,0,5.263,5.263A5.275,5.275,0,0,0,13.684,8.421Zm0,1.579A3.684,3.684,0,1,1,10,13.684,3.673,3.673,0,0,1,13.684,10Z" transform="translate(1052.316 226.316)" fill="#fff"/>
  </g>
</svg>
