<svg id="лого" xmlns="http://www.w3.org/2000/svg" width="140" height="62" viewBox="0 0 140 62">
  <g id="Слой_x0020_2" transform="translate(38.737 10.044)">
    <path id="Контур_67" data-name="Контур 67" d="M300.325,72.19h76.407v41.216H276.35Z" transform="translate(-276.35 -72.19)" fill="#fa6e03" fill-rule="evenodd"/>
  </g>
  <g id="Слой_x0020_3" transform="translate(63.487 19.413)">
    <path id="Контур_68" data-name="Контур 68" d="M452.92,142.539a6.939,6.939,0,0,0,1.912-.22,3.554,3.554,0,0,0,1.219-.6,3.084,3.084,0,0,0,.764-.878,7.481,7.481,0,0,0,.51-1.066h2.694v21.946h-4V144.985h-3.1v-2.446Zm12.925,14.14a2.124,2.124,0,0,0,.565,1.678,2.594,2.594,0,0,0,3.022,0,2.123,2.123,0,0,0,.565-1.678V144.828a2.123,2.123,0,0,0-.565-1.678,2.594,2.594,0,0,0-3.022,0,2.123,2.123,0,0,0-.565,1.678Zm-4-11.631a5.254,5.254,0,0,1,1.566-4.092,7.86,7.86,0,0,1,9.03,0A5.254,5.254,0,0,1,474,145.048v11.411a5.252,5.252,0,0,1-1.566,4.092,7.854,7.854,0,0,1-9.03,0,5.252,5.252,0,0,1-1.566-4.092Zm21.811.125a2.683,2.683,0,0,0-.565-1.991,2.148,2.148,0,0,0-1.511-.518,2.242,2.242,0,0,0-1.511.486,2.124,2.124,0,0,0-.565,1.678v2.351h-3.786v-2.131a5.357,5.357,0,0,1,1.511-4.092,7.688,7.688,0,0,1,8.921,0,5.356,5.356,0,0,1,1.511,4.092,7.909,7.909,0,0,1-.638,3.229,12.033,12.033,0,0,1-1.582,2.634,18.26,18.26,0,0,1-2.04,2.179q-1.093.987-1.967,1.881a9.1,9.1,0,0,0-1.383,1.771,2.626,2.626,0,0,0-.328,1.85h7.573v3.135H475.714v-2.7a6.468,6.468,0,0,1,.583-2.822,9.753,9.753,0,0,1,1.473-2.241,20.608,20.608,0,0,1,1.912-1.913,21.5,21.5,0,0,0,1.912-1.9,9.724,9.724,0,0,0,1.475-2.2A6.278,6.278,0,0,0,483.652,145.173ZM493.19,158.4v3.322h-3.859V158.4Zm10.3,3.322c-.048-.146-.1-.282-.146-.408a2.771,2.771,0,0,1-.126-.47,4.874,4.874,0,0,1-.073-.721q-.019-.438-.018-1.1v-3.449a3.031,3.031,0,0,0-.62-2.162,2.722,2.722,0,0,0-2-.627h-1.383v8.935h-4V139.781h6.044a6.709,6.709,0,0,1,4.533,1.254,4.831,4.831,0,0,1,1.4,3.794v1.724q0,3.387-2.621,4.452a3.4,3.4,0,0,1,2.093,1.74,6.873,6.873,0,0,1,.565,2.931v3.386a12.106,12.106,0,0,0,.073,1.426,4.076,4.076,0,0,0,.364,1.238Zm-4.369-18.812v6.741h1.566a2.791,2.791,0,0,0,1.766-.5,2.2,2.2,0,0,0,.638-1.818v-2.163a2.5,2.5,0,0,0-.492-1.725,2.015,2.015,0,0,0-1.547-.533h-1.93Zm14.055-3.135v16.956a2.074,2.074,0,0,0,.565,1.668,2.663,2.663,0,0,0,3.022,0,2.079,2.079,0,0,0,.563-1.668V139.781h3.787v16.711a5.362,5.362,0,0,1-1.511,4.092,7.688,7.688,0,0,1-8.92,0,5.357,5.357,0,0,1-1.511-4.092V139.781Z" transform="translate(-452.92 -139.53)" fill="#fefefe"/>
  </g>
  <g id="Слой_x0020_4" transform="translate(5.844 55.799)">
    <path id="Контур_69" data-name="Контур 69" d="M45.877,406.475h-.555v-4.058l-3.511,4.058H41.69v-5.283h.534v4.118l3.534-4.118h.119Zm1.794-5.283H48.2v2.215h2.712v-2.215h.534v5.283h-.534v-2.553H48.2v2.553h-.533Zm7.9,0H56.1v.678h.409a2.336,2.336,0,0,1,1.667.465,1.519,1.519,0,0,1,.467,1.116,1.54,1.54,0,0,1-.411,1.053,2.04,2.04,0,0,1-1.557.463H56.1v1.508h-.533v-1.508H55a3.685,3.685,0,0,1-1.005-.117,1.3,1.3,0,0,1-.681-.5,1.464,1.464,0,0,1-.285-.9,1.525,1.525,0,0,1,.464-1.114,2.34,2.34,0,0,1,1.674-.466h.405Zm.533,1.192v2.067h.562l.285,0a1.17,1.17,0,0,0,.852-.288.969.969,0,0,0,.3-.725.947.947,0,0,0-.348-.769,1.613,1.613,0,0,0-1.05-.288Zm-.533,0h-.6a1.7,1.7,0,0,0-1.026.273.917.917,0,0,0-.371.783.979.979,0,0,0,.293.725,1.2,1.2,0,0,0,.876.289l.268,0h.558Zm7.194-1.325a2.768,2.768,0,0,1,2.023.8,2.79,2.79,0,0,1,0,3.937,2.857,2.857,0,0,1-3.978,0,2.634,2.634,0,0,1-.814-1.946,2.8,2.8,0,0,1,.371-1.411,2.682,2.682,0,0,1,1.012-1.017,2.717,2.717,0,0,1,1.383-.369Zm.024.515a2.284,2.284,0,0,0-1.946,1.127,2.281,2.281,0,0,0-.3,1.153,2.148,2.148,0,0,0,.656,1.589,2.176,2.176,0,0,0,1.585.648,2.3,2.3,0,0,0,1.147-.3,2.147,2.147,0,0,0,.823-.815,2.282,2.282,0,0,0,.294-1.149,2.177,2.177,0,0,0-1.126-1.949A2.256,2.256,0,0,0,62.785,401.575Zm4.394-.383H68.24a6.137,6.137,0,0,1,1.231.079,1.365,1.365,0,0,1,.746.458,1.466,1.466,0,0,1,.007,1.742,1.392,1.392,0,0,1-.777.46,6.984,6.984,0,0,1-1.354.086h-.38v2.457h-.534Zm.534.515V403.5l.9.011a2.35,2.35,0,0,0,.8-.1.822.822,0,0,0,.4-.319.894.894,0,0,0,.144-.494.881.881,0,0,0-.144-.487.8.8,0,0,0-.384-.314,2.294,2.294,0,0,0-.777-.093Zm4.135,4.768.737-5.283H72.7l2.166,4.334,2.152-4.334h.08l.765,5.283h-.514l-.534-3.781-1.884,3.781h-.14l-1.9-3.811-.51,3.811Zm9.734-5.283,2.482,5.283h-.572l-.831-1.736H80.355l-.827,1.736h-.593l2.513-5.283Zm-.067,1.109-.915,1.923h1.828Zm7.826,4.174H85.4v-5.283h.534v4.789h2.461v-4.789h.533v4.789h.912v1.28h-.5Zm6.013,0H94.8v-4.058l-3.511,4.058h-.121v-5.283H91.7v4.118l3.534-4.118h.121Zm4.337-5.415a2.768,2.768,0,0,1,2.023.8,2.792,2.792,0,0,1,0,3.937,2.7,2.7,0,0,1-1.981.808,2.733,2.733,0,0,1-2-.8,2.634,2.634,0,0,1-.814-1.946,2.8,2.8,0,0,1,.37-1.411,2.691,2.691,0,0,1,1.012-1.017A2.722,2.722,0,0,1,99.691,401.06Zm.024.515a2.28,2.28,0,0,0-1.946,1.127,2.282,2.282,0,0,0-.3,1.153,2.144,2.144,0,0,0,.657,1.589,2.176,2.176,0,0,0,1.585.648,2.293,2.293,0,0,0,1.145-.3,2.137,2.137,0,0,0,.823-.815,2.269,2.269,0,0,0,.3-1.149,2.181,2.181,0,0,0-1.127-1.949A2.248,2.248,0,0,0,99.714,401.575Zm4.386-.383h.534v2.215h2.712v-2.215h.534v5.283h-.534v-2.553h-2.712v2.553H104.1Zm5.576,0h.534v2.215h2.712v-2.215h.534v5.283h-.534v-2.553h-2.712v2.553h-.534Zm8.122-.132a2.768,2.768,0,0,1,2.023.8,2.792,2.792,0,0,1,0,3.937,2.7,2.7,0,0,1-1.981.808,2.733,2.733,0,0,1-2-.8,2.634,2.634,0,0,1-.814-1.946,2.8,2.8,0,0,1,.37-1.411,2.691,2.691,0,0,1,1.012-1.017A2.723,2.723,0,0,1,117.8,401.06Zm.024.515a2.28,2.28,0,0,0-1.946,1.127,2.282,2.282,0,0,0-.3,1.153,2.144,2.144,0,0,0,.657,1.589,2.176,2.176,0,0,0,1.585.648,2.3,2.3,0,0,0,1.147-.3,2.156,2.156,0,0,0,.823-.815,2.282,2.282,0,0,0,.294-1.149,2.174,2.174,0,0,0-1.127-1.949A2.248,2.248,0,0,0,117.822,401.575Zm4.4-.383h3.046v.515h-2.512v1.656h2.489v.515h-2.489v2.083h2.489v.515h-3.024Zm11.789,0,2.482,5.283h-.572l-.831-1.736h-2.306l-.827,1.736h-.593l2.513-5.283Zm-.067,1.109-.915,1.923h1.828l-.913-1.923Zm4.41,4.174h-.534v-5.283h2.667v.515h-2.133v4.768Zm3.416-5.283h3.047v.515H142.3v1.656H144.8v.515H142.3v2.083H144.8v.515H141.77Zm4.473,0h.534v2.215h2.712v-2.215h.534v5.283h-.534v-2.553h-2.712v2.553h-.534Zm5.057.515v-.515h2.913v.515h-1.186v4.768h-.541v-4.768Zm9.153.46-.419.32a2.284,2.284,0,0,0-.834-.68,2.45,2.45,0,0,0-1.068-.232,2.369,2.369,0,0,0-1.179.3,2.183,2.183,0,0,0-.84.815,2.244,2.244,0,0,0-.3,1.151,2.153,2.153,0,0,0,.666,1.614,2.323,2.323,0,0,0,1.683.647,2.375,2.375,0,0,0,1.87-.868l.419.317a2.675,2.675,0,0,1-.992.776,3.126,3.126,0,0,1-1.329.275,2.728,2.728,0,0,1-2.881-2.8,2.6,2.6,0,0,1,.819-1.951,2.842,2.842,0,0,1,2.054-.792,3.049,3.049,0,0,1,1.346.291,2.611,2.611,0,0,1,.984.817Zm1.055-.46v-.515h2.911v.515h-1.184v4.768h-.542v-4.768Zm4.209-.515h1.048a2.5,2.5,0,0,1,.974.149,1.177,1.177,0,0,1,.537.458,1.244,1.244,0,0,1,.2.685,1.226,1.226,0,0,1-.172.641,1.291,1.291,0,0,1-.507.469,1.929,1.929,0,0,1,.638.328,1.285,1.285,0,0,1,.348.456,1.361,1.361,0,0,1,.125.58,1.417,1.417,0,0,1-.468,1.076,1.763,1.763,0,0,1-1.257.441h-1.462Zm.519.515V403.4h.306a2.4,2.4,0,0,0,.817-.1.893.893,0,0,0,.415-.323.843.843,0,0,0,.153-.491.7.7,0,0,0-.257-.57,1.308,1.308,0,0,0-.816-.206h-.618Zm0,2.222v2.031h.662a2.423,2.423,0,0,0,.855-.113.979.979,0,0,0,.437-.356.917.917,0,0,0-.066-1.138,1.2,1.2,0,0,0-.638-.359,4.692,4.692,0,0,0-.949-.065h-.3Zm6.773-2.869a2.767,2.767,0,0,1,2.021.8,2.79,2.79,0,0,1,0,3.937,2.857,2.857,0,0,1-3.978,0,2.634,2.634,0,0,1-.814-1.946,2.8,2.8,0,0,1,.371-1.411,2.682,2.682,0,0,1,1.012-1.017A2.719,2.719,0,0,1,173.011,401.06Zm.022.515a2.284,2.284,0,0,0-1.946,1.127,2.281,2.281,0,0,0-.3,1.153,2.144,2.144,0,0,0,.657,1.589,2.175,2.175,0,0,0,1.584.648,2.3,2.3,0,0,0,1.147-.3,2.147,2.147,0,0,0,.823-.815,2.283,2.283,0,0,0,.3-1.149,2.222,2.222,0,0,0-.3-1.137,2.192,2.192,0,0,0-.831-.812A2.253,2.253,0,0,0,173.033,401.575Z" transform="translate(-41.69 -401.06)" fill="#fff"/>
  </g>
  <g id="Слой_x0020_5" transform="translate(3.195)">
    <path id="Контур_70" data-name="Контур 70" d="M44.264,9.752H39.779l12.84,22.071L65.457,9.752h-5.3L52.5,23.143l-5.646-9.72L54.528,0h27.9L52.607,51.259,22.79,0H49.969Z" transform="translate(-22.79)" fill="#fa6e03"/>
  </g>
  <g id="Слой_x0020_6" transform="translate(0 0.373)">
    <path id="Контур_71" data-name="Контур 71" d="M7.959,22.7a1.543,1.543,0,0,1-.887-.672c-.757-.882-1.019-.8-1.738-1.44a13.588,13.588,0,0,1-2.366-3.744,2.119,2.119,0,0,1,.782.591l.729-.554L3.9,16.124,3.323,15.4l7.17-11.754.214-.971-1.032.447L2,14.527l-1.65-.7-.143.881.69.785c-.392,1.024-.421.728-.348,1.831-.119.063-.428-.1-.552.587.226.271.624.57.87.849.418-.284.363-.351.412-.793.842.36,1.182,2.055,1.873,3.239,1.623,1.621.615,1.941,3.028,3.691.283.2.65.42.957.668.1,1.2-.412,1.537.23,2.641.928,1.592.3,1.817.032,2.52a5.56,5.56,0,0,0-.653,3.6C7.6,38.579,10.073,42.613,8.44,46.8c-1.333,3.4.367,2.446.324,3.125a4.46,4.46,0,0,1-2.449,3.059v.587h17c-.078-.42.172-.875-.809-1.286a.989.989,0,0,1,.378-.762c.877-.824.723-.377.458-1.695a20.993,20.993,0,0,0-1.562-5.391L14.484,31A2.18,2.18,0,0,1,15,28.188c.663-.71,2.382-.831,3.412-.956.465-.056.942-.142,1.416-.207a24.584,24.584,0,0,0,2.895-.145,5.794,5.794,0,0,1,2.68-.429c.627.221,1.124.391,1.752.577.5.147.83.092.9-.024.055-.086.057-.274-.276-.417-.006,0-.953-.531-1.008-.582a9.41,9.41,0,0,1-.966-.959l.4-.125a1.417,1.417,0,0,0,.272-.022c0-.3-.137-.289-.447-.345-1.012-.182-1.018-.146-1.529.506a18.2,18.2,0,0,1-3.373-.342,5.273,5.273,0,0,0-1.615.17,3.635,3.635,0,0,1-1.511-.227c-.422-.1-2.7-.548-3.014-.527-1.089.072-1.685.195-2.2-.5a1.009,1.009,0,0,1-.2-.648,1.6,1.6,0,0,0,.576-.785c.112-.4-.172,0,.107-.488a2.388,2.388,0,0,0,.3-1.565c-.214-.49-.043-.74-.123-1.266-.471-.1-.77.038-1.152-.186-.6-.353-.463-.988-2.408.465a3.226,3.226,0,0,0-.67.646c-.118.369.163-.063.154.374,0,.157-.042.145-.083.211l-.136.17a1.3,1.3,0,0,0-.391.95c-.022.808-.21,1.206.592,1.082l.37-.028c.014,0,.048.039.056.019.064-.117.174.473-.042.945-.657-.224-.7-.53-1.776-.833Z" transform="translate(0 -2.68)" fill="#fff" fill-rule="evenodd"/>
  </g>
</svg>
