<svg xmlns="http://www.w3.org/2000/svg" xmlns:xlink="http://www.w3.org/1999/xlink" width="20" height="20" viewBox="0 0 20 20">
  <defs>
    <clipPath id="clip-path-odnoklassniki">
      <rect id="Прямоугольник_17" data-name="Прямоугольник 17" width="20" height="20" transform="translate(156 12)" fill="#fff"/>
    </clipPath>
  </defs>
  <g id="Группа_масок_11" data-name="Группа масок 11" transform="translate(-156 -12)" clip-path="url(#clip-path-odnoklassniki)">
    <path id="icons8-odnoklassniki" d="M10.912.909a5,5,0,1,0,5,5A5.011,5.011,0,0,0,10.912.909Zm0,1.364A3.637,3.637,0,1,1,7.274,5.91,3.627,3.627,0,0,1,10.912,2.273Zm0,1.364a2.268,2.268,0,0,0-1.7.726,2.384,2.384,0,0,0,0,3.094,2.36,2.36,0,0,0,3.406,0,2.384,2.384,0,0,0,0-3.094A2.268,2.268,0,0,0,10.912,3.637Zm0,1.364a.818.818,0,0,1,.684.268,1.024,1.024,0,0,1,0,1.282.818.818,0,0,1-.684.268.818.818,0,0,1-.684-.268,1.024,1.024,0,0,1,0-1.282A.818.818,0,0,1,10.912,5Zm-4.1,5.706a2.043,2.043,0,0,0-1.051,3.8,9.813,9.813,0,0,0,1.844.837L5.538,17.483l-.019.02a2.046,2.046,0,1,0,3.057,2.719l-.019.02,2.353-2.437,2.354,2.437-.019-.02a2.047,2.047,0,0,0,2.888.17h0A2.056,2.056,0,0,0,16.3,17.5l-.019-.021-2.071-2.143A9.821,9.821,0,0,0,16.06,14.5,2.046,2.046,0,0,0,13.948,11a6.037,6.037,0,0,1-6.075,0,2.017,2.017,0,0,0-.763-.27A2.048,2.048,0,0,0,6.814,10.707Zm-.033,1.358a.688.688,0,0,1,.389.1,7.34,7.34,0,0,0,7.481,0,.682.682,0,1,1,.7,1.169,8.588,8.588,0,0,1-2.55,1.019.682.682,0,0,0-.341,1.139l2.822,2.921a.681.681,0,0,1-1.02.9l-.02-.021L11.4,16.351a.682.682,0,0,0-.98,0L7.577,19.3l-.019.02a.682.682,0,1,1-1.019-.906l2.818-2.919a.682.682,0,0,0-.341-1.139,8.591,8.591,0,0,1-2.55-1.019.672.672,0,0,1-.233-.936.681.681,0,0,1,.419-.314A.664.664,0,0,1,6.782,12.065Z" transform="translate(155.089 11.091)" fill="#fff"/>
  </g>
</svg>
