<svg xmlns="http://www.w3.org/2000/svg" xmlns:xlink="http://www.w3.org/1999/xlink" width="16" height="16" viewBox="0 0 16 16">
  <defs>
    <clipPath id="clip-path-photo">
      <rect id="Прямоугольник_47" data-name="Прямоугольник 47" width="16" height="16" transform="translate(104 2278)" fill="#fff"/>
    </clipPath>
  </defs>
  <g id="Группа_масок_18" data-name="Группа масок 18" transform="translate(-104 -2278)" opacity="0.5" clip-path="url(#clip-path-photo)">
    <path id="icons8-camera" d="M8.589,2.5a1.8,1.8,0,0,0-1.555.893L6.155,4.9H4.6A2.609,2.609,0,0,0,2,7.5v7.6a2.609,2.609,0,0,0,2.6,2.6H15.4A2.609,2.609,0,0,0,18,15.1V7.5a2.609,2.609,0,0,0-2.6-2.6H13.845l-.879-1.507A1.8,1.8,0,0,0,11.411,2.5Zm0,1.2h2.822a.6.6,0,0,1,.518.3l1.053,1.8a.6.6,0,0,0,.518.3h1.9a1.391,1.391,0,0,1,1.4,1.4v7.6a1.391,1.391,0,0,1-1.4,1.4H4.6a1.391,1.391,0,0,1-1.4-1.4V7.5A1.391,1.391,0,0,1,4.6,6.1H6.5a.6.6,0,0,0,.518-.3L8.071,4A.6.6,0,0,1,8.589,3.7ZM10,7.3a3.6,3.6,0,1,0,3.6,3.6A3.609,3.609,0,0,0,10,7.3Zm0,1.2a2.4,2.4,0,1,1-2.4,2.4A2.391,2.391,0,0,1,10,8.5Z" transform="translate(102 2275.9)" fill="#fff"/>
  </g>
</svg>
