<svg xmlns="http://www.w3.org/2000/svg" xmlns:xlink="http://www.w3.org/1999/xlink" width="20" height="20" viewBox="0 0 20 20">
  <defs>
    <clipPath id="clip-path-tg">
      <rect id="Прямоугольник_7" data-name="Прямоугольник 7" width="20" height="20" transform="translate(1188 230)" fill="#fff"/>
    </clipPath>
  </defs>
  <g id="Группа_масок_7" data-name="Группа масок 7" transform="translate(-1188 -230)" clip-path="url(#clip-path-tg)">
    <path id="icons8-telegram_app" d="M19.033,6.105c.8,0,1.015.608.777,2.034-.272,1.631-1.055,7.032-1.68,10.394-.239,1.287-.67,1.841-1.3,1.841a2.344,2.344,0,0,1-1.212-.474c-.628-.415-3.8-2.513-4.49-3.006-.628-.449-1.5-.989-.408-2.053.387-.379,2.923-2.8,4.9-4.686a.293.293,0,0,0-.365-.456C12.594,11.466,8.9,13.918,8.43,14.237a2.6,2.6,0,0,1-1.538.524,3.905,3.905,0,0,1-1.077-.172c-.925-.266-1.828-.582-2.18-.7-1.355-.465-1.033-1.067.282-1.646C9.191,9.919,16.017,7.09,16.959,6.7a6.172,6.172,0,0,1,2.075-.593m0-1.428h0a7.125,7.125,0,0,0-2.622.7l-.142.059c-5.064,2.1-9.655,4.054-12.928,5.494-.511.225-2.067.909-2.006,2.341.026.618.366,1.459,1.836,1.964l.109.037c.41.141,1.265.436,2.141.688a5.3,5.3,0,0,0,1.472.228A3.829,3.829,0,0,0,8.779,15.7a2.276,2.276,0,0,0,.006.241,2.868,2.868,0,0,0,1.446,2.065l.071.05c.751.537,4.149,2.782,4.534,3.036a3.656,3.656,0,0,0,2,.71c.977,0,2.239-.522,2.7-3.008.439-2.358.945-5.653,1.315-8.058.158-1.027.287-1.868.369-2.362a3.538,3.538,0,0,0-.451-2.945,2.181,2.181,0,0,0-1.736-.752Z" transform="translate(1186.667 226.761)" fill="#fff"/>
  </g>
</svg>
