<svg xmlns="http://www.w3.org/2000/svg" xmlns:xlink="http://www.w3.org/1999/xlink" width="20" height="20" viewBox="0 0 20 20">
  <defs>
    <clipPath id="clip-path-twitter">
      <rect id="Прямоугольник_18" data-name="Прямоугольник 18" width="20" height="20" transform="translate(180 12)" fill="#fff"/>
    </clipPath>
  </defs>
  <g id="Группа_масок_12" data-name="Группа масок 12" transform="translate(-180 -12)" clip-path="url(#clip-path-twitter)">
    <path id="icons8-twitter" d="M15.238,2.857A4.762,4.762,0,0,0,10.5,7.52,8.181,8.181,0,0,1,5.807,5.549,5.324,5.324,0,0,1,4.474,3.784a.714.714,0,0,0-1.235-.166,5.06,5.06,0,0,0-.858,2.81A4.206,4.206,0,0,0,3.04,8.684c-.013-.006-.1-.037-.1-.037a.714.714,0,0,0-1.03.7,5.83,5.83,0,0,0,2.164,3.478l-.2.049a.714.714,0,0,0-.447,1.047,4.953,4.953,0,0,0,.991,1.112,7.731,7.731,0,0,0,1.671,1.01,11.322,11.322,0,0,1-3.947.618.714.714,0,0,0-.538,1.185A5.7,5.7,0,0,0,3.23,18.976,11.624,11.624,0,0,0,8.333,20a10.861,10.861,0,0,0,9-4.516A13.81,13.81,0,0,0,20,7.619c0-.147-.009-.292-.022-.435a7.306,7.306,0,0,0,1.4-1.733.476.476,0,0,0-.625-.645l-.077.035-.2.091a4.189,4.189,0,0,0,.453-.981.476.476,0,0,0-.7-.549,6.945,6.945,0,0,1-1.721.767A4.74,4.74,0,0,0,15.238,2.857Zm0,1.429a3.323,3.323,0,0,1,3.333,3.333,12.61,12.61,0,0,1-2.39,7.016,9.3,9.3,0,0,1-7.848,3.936A10.181,10.181,0,0,1,4.454,17.9a11.732,11.732,0,0,0,2.321-.564,6.021,6.021,0,0,0,1.547-.838.714.714,0,0,0-.292-1.235,6.483,6.483,0,0,1-2.65-1.285l.745-.186a.714.714,0,0,0,.084-1.36,4.224,4.224,0,0,1-2.526-2.139A5.8,5.8,0,0,0,5,10.476a.714.714,0,0,0,.319-1.353A2.917,2.917,0,0,1,3.982,5.57,6.308,6.308,0,0,0,4.838,6.6a9.854,9.854,0,0,0,6.314,2.448.714.714,0,0,0,.752-.713V7.619A3.323,3.323,0,0,1,15.238,4.286Z" transform="translate(178.572 10.572)" fill="#fff"/>
  </g>
</svg>
