<svg xmlns="http://www.w3.org/2000/svg" xmlns:xlink="http://www.w3.org/1999/xlink" width="15" height="15" viewBox="0 0 15 15">
  <defs>
    <clipPath id="clip-path-views">
      <rect id="Прямоугольник_57" data-name="Прямоугольник 57" width="15" height="15" transform="translate(307 1357)" fill="#fff"/>
    </clipPath>
  </defs>
  <g id="Группа_масок_21" data-name="Группа масок 21" transform="translate(-307 -1357)" opacity="0.5" clip-path="url(#clip-path-views)">
    <path id="eye" d="M7.5,3.75a2.889,2.889,0,0,0-.814.13,1.443,1.443,0,0,1,.189.7A1.458,1.458,0,0,1,5.417,6.042a1.443,1.443,0,0,1-.7-.189A2.909,2.909,0,1,0,7.5,3.75Zm7.409,2.536A8.353,8.353,0,0,0,7.5,1.667,8.354,8.354,0,0,0,.091,6.287a.842.842,0,0,0,0,.76A8.353,8.353,0,0,0,7.5,11.667a8.354,8.354,0,0,0,7.409-4.62.842.842,0,0,0,0-.76ZM7.5,10.417a7.084,7.084,0,0,1-6.2-3.75,7.084,7.084,0,0,1,6.2-3.75,7.084,7.084,0,0,1,6.2,3.75A7.084,7.084,0,0,1,7.5,10.417Z" transform="translate(307 1357.833)" fill="#fff"/>
  </g>
</svg>
