<svg xmlns="http://www.w3.org/2000/svg" xmlns:xlink="http://www.w3.org/1999/xlink" width="20" height="20" viewBox="0 0 20 20">
  <defs>
    <clipPath id="clip-path-vk">
      <rect id="Прямоугольник_11" data-name="Прямоугольник 11" width="20" height="20" transform="translate(1100 230)" fill="#fff"/>
    </clipPath>
  </defs>
  <g id="Группа_масок_5" data-name="Группа масок 5" transform="translate(-1100 -230)" clip-path="url(#clip-path-vk)">
    <path id="icons8-vkontakte" d="M2.831,6.974A1.581,1.581,0,0,0,1.317,8.961a19.646,19.646,0,0,0,3.435,7.06,9.685,9.685,0,0,0,6.609,3.695A1.6,1.6,0,0,0,13.1,18.129v-1.84a.186.186,0,0,1,.168-.2H13.3a2.99,2.99,0,0,1,1.563,1.029,11.116,11.116,0,0,1,1.341,1.831h0a1.563,1.563,0,0,0,1.354.778h2.215a1.508,1.508,0,0,0,1.3-2.211,16.651,16.651,0,0,0-3.385-3.764,15.787,15.787,0,0,0,3.032-4.786,1.482,1.482,0,0,0-1.364-1.975H17.78a1.748,1.748,0,0,0-1.59.871,11.183,11.183,0,0,1-3.1,4.116V8.557A1.572,1.572,0,0,0,11.53,7l-2.769,0a1.147,1.147,0,0,0-.9,1.795l.535.716v0a.687.687,0,0,1,.14.416h0l.011,2.854a16.006,16.006,0,0,1-2.659-4.72h0A1.575,1.575,0,0,0,4.4,6.978h0l-1.567,0Zm0,1.364,1.565,0a.2.2,0,0,1,.2.139A15.226,15.226,0,0,0,7.712,13.9a1.292,1.292,0,0,0,2.2-.914h0L9.9,9.921a2.054,2.054,0,0,0-.414-1.235v0l-.244-.326,2.286,0a.186.186,0,0,1,.2.2v3.457a1.375,1.375,0,0,0,2.232,1.019h0a13.016,13.016,0,0,0,3.457-4.571c.031-.063,0-.106.365-.106h1.581c.092,0,.119.044.084.138a14.714,14.714,0,0,1-2.837,4.443,1.232,1.232,0,0,0,.077,1.74,17.894,17.894,0,0,1,3.2,3.5c.06.108.015.182-.11.182H17.561a.194.194,0,0,1-.172-.1,12.075,12.075,0,0,0-1.522-2.078A3.66,3.66,0,0,0,13.3,14.726h-.076a1.558,1.558,0,0,0-1.494,1.563v1.84a.219.219,0,0,1-.234.23,8.221,8.221,0,0,1-5.692-3.2,18.44,18.44,0,0,1-3.179-6.57A.189.189,0,0,1,2.831,8.338Z" transform="translate(1098.741 226.649)" fill="#fff"/>
  </g>
</svg>
