<svg xmlns="http://www.w3.org/2000/svg" width="20" height="20" viewBox="0 0 20 20">
  <g id="YaZen" data-name="YaZen" transform="translate(-0.013 -2.014)">
    <path id="Контур_29" data-name="Контур 29" d="M12.259,9.961c1.509,1.508,3.763,1.794,7.754,1.848a10,10,0,0,0-9.6-9.786c.048,4.105.319,6.406,1.85,7.937Zm-4.3,0c1.532-1.532,1.8-3.836,1.85-7.947a10,10,0,0,0-9.8,9.8c4.112-.048,6.414-.318,7.947-1.85Zm4.3,4.3c-1.507,1.508-1.793,3.76-1.848,7.745A10,10,0,0,0,20,12.412c-3.985.054-6.237.34-7.745,1.848Zm-4.3,0c-1.532-1.531-3.832-1.8-7.937-1.85a10,10,0,0,0,9.785,9.6c-.054-3.992-.339-6.246-1.848-7.754Z" transform="translate(0 0)" fill="#fff"/>
  </g>
</svg>
